<?xml version="1.0" standalone="no"?>
<!DOCTYPE svg PUBLIC "-//W3C//DTD SVG 20010904//EN"
 "http://www.w3.org/TR/2001/REC-SVG-20010904/DTD/svg10.dtd">
<svg version="1.0" xmlns="http://www.w3.org/2000/svg"
 width="700.000000pt" height="700.000000pt" viewBox="0 0 700.000000 700.000000"
 preserveAspectRatio="xMidYMid meet">
<metadata>
Created by potrace 1.14, written by Peter Selinger 2001-2017
</metadata>
<g transform="translate(0.000000,700.000000) scale(0.100000,-0.100000)"
fill="#000000" stroke="none">
<path d="M3245 6084 c-138 -179 -257 -334 -265 -344 -18 -22 -56 -71 -350
-455 -127 -165 -236 -307 -243 -315 -7 -8 -55 -71 -107 -140 -52 -69 -98 -127
-101 -130 -3 -3 -35 -44 -71 -92 l-65 -88 -249 174 c-137 96 -287 201 -333
233 -46 32 -89 63 -95 68 -7 6 -19 15 -29 20 -18 11 -573 399 -597 418 -18 14
-130 91 -146 100 -7 4 -10 -495 -10 -1741 l1 -1747 2915 0 2915 0 1 1743 c0
1032 -3 1742 -9 1742 -7 0 -93 -56 -107 -70 -3 -3 -25 -19 -50 -35 -25 -17
-49 -34 -55 -38 -5 -4 -93 -66 -195 -137 -102 -71 -192 -134 -200 -140 -16
-12 -576 -403 -600 -420 -79 -55 -189 -132 -205 -145 -10 -8 -24 -15 -31 -15
-10 0 -359 446 -635 810 -35 47 -66 87 -69 90 -7 6 -295 381 -334 435 -16 22
-34 45 -40 52 -6 6 -21 24 -33 40 -167 219 -346 449 -351 451 -4 1 -120 -145
-257 -324z m476 -911 c117 -153 236 -307 263 -343 28 -36 128 -166 223 -290
95 -124 220 -286 277 -360 58 -74 160 -207 228 -296 l124 -161 69 49 c39 26
104 71 145 100 92 63 129 89 149 105 9 7 154 109 324 227 184 129 307 209 308
200 0 -7 1 -403 1 -879 0 -476 -1 -873 -1 -883 -1 -16 -118 -17 -2331 -17
-2064 0 -2330 2 -2331 15 -3 56 -1 1771 2 1774 3 2 852 -587 974 -677 20 -15
13 -22 158 167 12 16 49 64 82 107 33 42 123 159 200 259 133 173 312 405 354
460 11 14 85 111 165 215 309 403 390 505 397 505 4 0 103 -125 220 -277z"/>
<path d="M584 1167 l1 -292 2913 0 c2596 0 2913 1 2916 15 2 8 3 139 2 290
l-1 275 -2916 2 -2915 3 0 -293z"/>
</g>
</svg>
